<svg xmlns="http://www.w3.org/2000/svg" width="26" height="26" fill="none" viewBox="0 0 26 26">
  <g clip-path="url(#a)">
    <path fill="#063255" d="M13 9.79c-1.77 0-3.21 1.44-3.21 3.21s1.44 3.21 3.21 3.21 3.21-1.44 3.21-3.21S14.77 9.79 13 9.79Zm0 4.896c-.93 0-1.686-.756-1.686-1.686 0-.93.756-1.686 1.686-1.686.93 0 1.686.756 1.686 1.686 0 .93-.756 1.686-1.686 1.686Z"/>
    <path fill="#000" fill-opacity=".2" d="M13 9.79c-1.77 0-3.21 1.44-3.21 3.21s1.44 3.21 3.21 3.21 3.21-1.44 3.21-3.21S14.77 9.79 13 9.79Zm0 4.896c-.93 0-1.686-.756-1.686-1.686 0-.93.756-1.686 1.686-1.686.93 0 1.686.756 1.686 1.686 0 .93-.756 1.686-1.686 1.686Z"/>
    <path fill="#063255" d="M7.195 7.196 6.118 6.118A9.67 9.67 0 0 0 3.264 13a9.67 9.67 0 0 0 2.854 6.882l1.078-1.077A8.157 8.157 0 0 1 4.787 13c0-2.19.855-4.251 2.408-5.804Z"/>
    <path fill="#000" fill-opacity=".2" d="M7.195 7.196 6.118 6.118A9.67 9.67 0 0 0 3.264 13a9.67 9.67 0 0 0 2.854 6.882l1.078-1.077A8.157 8.157 0 0 1 4.787 13c0-2.19.855-4.251 2.408-5.804Z"/>
    <path fill="#063255" d="M4.889 4.889 3.812 3.812A12.912 12.912 0 0 0 0 13c0 3.467 1.354 6.73 3.812 9.188l1.077-1.077a11.399 11.399 0 0 1-3.366-8.11 11.4 11.4 0 0 1 3.366-8.112Z"/>
    <path fill="#000" fill-opacity=".2" d="M4.889 4.889 3.812 3.812A12.912 12.912 0 0 0 0 13c0 3.467 1.354 6.73 3.812 9.188l1.077-1.077a11.399 11.399 0 0 1-3.366-8.11 11.4 11.4 0 0 1 3.366-8.112Z"/>
    <path fill="#063255" d="m22.188 3.812-1.077 1.077A11.398 11.398 0 0 1 24.477 13c0 3.06-1.196 5.94-3.366 8.111l1.077 1.077A12.912 12.912 0 0 0 26 13c0-3.467-1.354-6.73-3.812-9.188Z"/>
    <path fill="#000" fill-opacity=".2" d="m22.188 3.812-1.077 1.077A11.398 11.398 0 0 1 24.477 13c0 3.06-1.196 5.94-3.366 8.111l1.077 1.077A12.912 12.912 0 0 0 26 13c0-3.467-1.354-6.73-3.812-9.188Z"/>
    <path fill="#063255" d="m19.882 6.118-1.077 1.078A8.157 8.157 0 0 1 21.213 13c0 2.19-.855 4.252-2.409 5.805l1.078 1.077A9.67 9.67 0 0 0 22.736 13a9.67 9.67 0 0 0-2.854-6.882Z"/>
    <path fill="#000" fill-opacity=".2" d="m19.882 6.118-1.077 1.078A8.157 8.157 0 0 1 21.213 13c0 2.19-.855 4.252-2.409 5.805l1.078 1.077A9.67 9.67 0 0 0 22.736 13a9.67 9.67 0 0 0-2.854-6.882Z"/>
    <path fill="#063255" d="m17.575 8.425-1.077 1.077A4.915 4.915 0 0 1 17.949 13c0 1.32-.515 2.562-1.451 3.498l1.077 1.077A6.43 6.43 0 0 0 19.473 13a6.429 6.429 0 0 0-1.898-4.575Z"/>
    <path fill="#000" fill-opacity=".2" d="m17.575 8.425-1.077 1.077A4.915 4.915 0 0 1 17.949 13c0 1.32-.515 2.562-1.451 3.498l1.077 1.077A6.43 6.43 0 0 0 19.473 13a6.429 6.429 0 0 0-1.898-4.575Z"/>
    <path fill="#063255" d="M9.502 9.502 8.425 8.425A6.429 6.429 0 0 0 6.527 13a6.43 6.43 0 0 0 1.898 4.575l1.077-1.077A4.916 4.916 0 0 1 8.051 13c0-1.32.515-2.562 1.451-3.498Z"/>
    <path fill="#000" fill-opacity=".2" d="M9.502 9.502 8.425 8.425A6.429 6.429 0 0 0 6.527 13a6.43 6.43 0 0 0 1.898 4.575l1.077-1.077A4.916 4.916 0 0 1 8.051 13c0-1.32.515-2.562 1.451-3.498Z"/>
  </g>
  <defs>
    <clipPath id="a">
      <path fill="#fff" d="M0 0h26v26H0z"/>
    </clipPath>
  </defs>
</svg>
